<svg width="63" height="35" viewBox="0 0 63 35" fill="none" xmlns="http://www.w3.org/2000/svg">
<path d="M48.7528 28.9538C53.0937 28.9538 57.1877 28.9538 61.3023 28.9538C62.8247 28.9538 62.8247 28.9538 62.8247 30.435C62.8247 33.0889 62.8247 33.0889 60.2119 33.0889C54.5955 33.0889 48.9791 33.0684 43.3422 33.1095C42.4575 33.1095 42.2312 32.8626 42.1489 31.978C41.9638 30.2087 42.6221 29.1389 44.0828 28.1309C47.539 25.7444 50.913 23.1934 53.7932 20.0869C55.3773 18.3793 56.6734 16.5072 57.1466 14.1825C57.414 12.8246 57.4346 11.4463 56.8586 10.1502C56.0562 8.36033 54.5955 7.45512 52.7028 7.22882C50.3369 6.96137 48.2797 7.55798 46.819 9.5947C46.0578 10.6439 45.6669 11.8577 45.5229 13.1332C45.4406 14.0179 45.0909 14.0384 44.412 13.6887C43.6302 13.2772 42.8073 12.9069 41.9844 12.5778C41.3466 12.3309 41.2232 11.94 41.326 11.3022C42.2107 6.05616 46.387 2.82622 52.1474 2.97023C54.3692 3.03195 56.5088 3.46398 58.3809 4.76007C61.9195 7.1671 63.195 11.8166 61.5903 16.2397C60.5205 19.1611 58.4632 21.3624 56.2208 23.3991C54.1841 25.2507 51.9416 26.8348 49.658 28.3366C49.4112 28.4806 49.1643 28.6658 48.7528 28.9538Z" fill="#2A2A2A"/>
<path d="M5.48804 23.502C4.10966 21.8356 2.4844 20.4161 0.982583 18.8731C-0.25179 17.577 -0.272363 17.3713 0.982583 16.1369C2.54612 14.5939 4.10966 13.0716 5.6732 11.5492C5.73492 11.4669 5.83778 11.4257 5.94065 11.4257C6.96929 11.796 7.73049 12.5367 8.47111 13.2979C9.47918 14.3265 10.5078 15.3346 11.5159 16.3632C11.7833 16.6307 12.0508 16.8981 12.1125 17.289C12.0508 17.8445 11.8245 18.3382 11.4336 18.7291C10.0347 20.1486 8.61512 21.5887 7.17502 22.9671C6.80471 23.3168 6.39325 23.6254 5.87893 23.7283C5.69377 23.7283 5.57034 23.646 5.48804 23.502Z" fill="#A6A6A6"/>
<path d="M5.48802 23.502C5.61146 23.4814 5.73489 23.4814 5.8789 23.4608C6.51666 23.5431 6.8664 24.0369 7.29843 24.4072C9.04713 25.8678 10.5695 27.5754 12.1742 29.1801C12.1742 29.2829 12.1125 29.3652 12.0302 29.4475C11.5364 29.3858 11.2896 29.7355 11.0016 30.0236C9.54088 31.5048 8.05963 32.9861 6.61953 34.4879C6.08463 35.0434 5.71432 35.1256 5.11771 34.5085C3.57474 32.9038 1.99063 31.3402 0.36537 29.8384C-0.354681 29.1595 0.139069 28.748 0.571099 28.316C2.21693 26.6908 3.86276 25.1066 5.48802 23.502Z" fill="#3B3B3B"/>
<path d="M5.85828 11.5491C5.79657 11.5491 5.73485 11.5491 5.67313 11.5286C3.96558 9.86217 2.25803 8.19577 0.55048 6.52936C-0.00498834 5.97389 -0.066707 5.54186 0.591625 4.94525C2.11402 3.54629 3.53355 2.06505 4.97365 0.604371C5.65256 -0.0951072 6.18745 -0.0745344 6.84578 0.624944C8.40932 2.2502 10.0346 3.81374 11.6187 5.41843C11.701 5.48014 11.7421 5.56244 11.7421 5.6653C10.4666 6.89967 9.5614 8.48379 8.05958 9.533C7.31896 10.0473 6.74292 10.7879 6.12573 11.4669C6.04344 11.508 5.96115 11.5286 5.85828 11.5491Z" fill="#808080"/>
<path d="M23.9625 5.35669C25.526 3.79315 27.1101 2.22961 28.6737 0.66607C29.5789 -0.218564 29.7229 -0.218564 30.5664 0.645497C32.0065 2.10617 33.4054 3.58742 34.8661 5.02752C35.401 5.56242 35.4216 5.93273 34.8661 6.44705C33.1997 8.05174 31.5745 9.69757 29.9286 11.3434C29.8875 11.3845 29.8463 11.4051 29.8258 11.4463C29.7229 11.4874 29.6406 11.508 29.5377 11.4874C28.8383 11.364 28.3857 10.9319 28.0771 10.3148C27.4187 8.9158 26.3901 7.88715 24.9911 7.22882C24.2917 6.89965 24.1476 6.22075 23.8391 5.62414C23.8596 5.52127 23.9008 5.43898 23.9625 5.35669Z" fill="#525252"/>
<path d="M29.764 11.3846C29.8257 11.364 29.8875 11.3434 29.9492 11.3434C29.9492 11.9195 30.3401 12.2692 30.6898 12.6395C31.9859 13.9356 33.3026 15.2317 34.5987 16.5484C35.4421 17.3918 35.4627 17.6593 34.6192 18.4822C33.3026 19.7783 31.9653 21.0332 30.6281 22.3088C30.2166 22.6996 29.908 23.1317 29.9286 23.7283C29.8463 23.79 29.764 23.8312 29.6612 23.8106C28.5091 22.8437 27.4393 21.7533 26.2666 20.7658C25.5877 20.1486 25.0323 19.408 24.3945 18.7291C23.6333 17.9062 23.695 17.0215 24.4768 16.1986C25.814 14.8408 27.1718 13.483 28.5502 12.1252C28.9 11.7754 29.2703 11.508 29.764 11.3846Z" fill="#BBBBBB"/>
<path d="M12.0508 29.4475C12.0714 29.3858 12.0714 29.3241 12.092 29.2418C12.092 28.6246 12.4829 28.2337 12.8532 27.8428C13.9847 26.6496 15.1368 25.4975 16.33 24.366C17.3792 23.3785 18.0787 23.3991 19.1279 24.4072C20.6709 25.8678 22.0698 27.4725 23.6745 28.8509C23.9008 29.1595 24.4769 29.2829 24.1683 29.859C23.5305 29.6327 23.0573 29.8795 22.6253 30.3321C21.2058 31.7722 19.7657 33.1712 18.3667 34.6113C17.8935 35.1051 17.4821 35.1462 16.9883 34.6319C15.3425 32.8832 13.6967 31.1756 12.0508 29.4475Z" fill="#868686"/>
<path d="M24.1888 29.8384C24.0036 29.4887 23.6127 29.4475 23.3247 29.2418C23.3453 29.0772 23.407 28.9332 23.4893 28.8098C24.806 28.5629 25.5466 27.5342 26.4106 26.6702C27.3776 25.7033 28.3651 24.7363 29.3114 23.7488C29.4349 23.646 29.5789 23.646 29.7229 23.6665C29.7846 23.6871 29.8463 23.6871 29.908 23.6871C31.5127 25.3124 33.1174 26.9582 34.7632 28.5629C35.3804 29.1595 35.3598 29.571 34.7427 30.1676C33.1997 31.6282 31.6979 33.1301 30.2166 34.6319C29.7434 35.1051 29.4143 35.1051 28.9411 34.6319C27.3981 33.0272 25.7729 31.4431 24.1888 29.8384Z" fill="#3B3B3B"/>
<path d="M23.9624 5.35672C23.9624 5.41843 23.9624 5.48015 23.9624 5.56244C23.9419 5.66531 23.9213 5.7476 23.8802 5.85046C22.1726 7.61973 20.3005 9.22442 18.5518 10.9731C17.9346 11.5903 17.4203 11.5286 16.7002 10.8085C15.0132 9.1627 13.3468 7.55801 11.7627 5.85046C11.701 5.76817 11.6599 5.68588 11.6393 5.58302C11.6393 5.5213 11.6187 5.48015 11.6187 5.41843C12.1536 5.39786 12.4828 5.04812 12.8325 4.69838C14.2315 3.27885 15.651 1.90047 17.0294 0.460369C17.5849 -0.115672 17.9757 -0.136245 18.5518 0.439796C19.9302 1.8799 21.3497 3.25828 22.7486 4.65724C23.0984 5.00698 23.407 5.37729 23.9624 5.35672Z" fill="#A1A1A1"/>
<path d="M11.8244 5.62412C12.3182 5.66526 12.6062 6.03558 12.9148 6.34417C14.2314 7.66084 15.5481 8.93635 16.8236 10.2736C17.482 10.9525 17.9757 10.9114 18.6135 10.253C19.9301 8.89521 21.2468 7.55797 22.6869 6.3236C23.0366 6.03558 23.3658 5.74756 23.7978 5.60355C25.5465 7.12594 27.2129 8.73063 28.7765 10.4587C29.0439 10.7673 29.3114 11.0965 29.7023 11.2611C29.7228 11.3022 29.7434 11.3228 29.764 11.364C29.4348 12.1869 28.6942 12.6806 28.0976 13.2772C27.0072 14.4087 25.8963 15.5403 24.7648 16.61C24.1476 17.2067 24.1887 17.6387 24.7853 18.2147C25.5054 18.8936 26.2666 19.5314 26.8221 20.3749C26.39 20.9303 26.0609 20.4983 25.7317 20.2309C24.8059 19.4285 24.0653 18.441 23.0778 17.6798C21.6583 16.0957 20.1359 14.635 18.6135 13.1538C17.8728 12.4337 17.5231 12.4337 16.7825 13.1538C15.5687 14.3059 14.4166 15.5197 13.2028 16.6923C12.9148 16.9598 12.6885 17.3507 12.2153 17.3712C12.0713 17.3712 11.9273 17.3301 11.7833 17.2889C9.80827 15.3757 7.8127 13.4418 5.83771 11.5285C5.83771 11.4462 5.85828 11.3845 5.85828 11.3022C7.11323 10.4587 8.08015 9.30667 9.14994 8.27802C10.0757 7.43453 10.9192 6.50875 11.8244 5.62412Z" fill="#676767"/>
<path d="M11.8039 17.3095C11.8862 17.2478 11.9685 17.1861 12.0508 17.1244C13.4086 18.3587 14.6224 19.7371 15.9596 21.0126C16.0831 21.1361 16.2065 21.2595 16.3299 21.3829C17.6055 22.6585 17.8112 22.6585 19.0456 21.4035C20.3828 20.0457 21.8023 18.7496 23.0984 17.3712C23.1601 17.3095 23.2836 17.2889 23.3864 17.2684C24.2093 18.0707 25.0323 18.8731 25.8758 19.6754C26.1638 19.9634 26.4312 20.272 26.8427 20.416C27.6244 21.1566 28.3856 21.9178 29.1674 22.6585C29.4554 22.9465 29.7023 23.2551 29.764 23.6871C29.7023 23.7488 29.62 23.8311 29.5583 23.8928C28.9823 24.0163 28.6531 24.4689 28.2622 24.8392C26.781 26.2999 25.382 27.8634 23.7979 29.2212C23.6333 29.2212 23.4893 29.2418 23.3247 29.2418C21.8846 27.8223 20.4651 26.4233 19.025 25.0038C17.8112 23.79 17.6466 23.79 16.3917 25.0449C15.1573 26.2793 13.9641 27.5342 12.7297 28.7686C12.5445 28.9538 12.2976 29.0978 12.0919 29.2624C11.5982 29.2418 11.1867 29.0772 10.8575 28.6863C9.6026 27.2462 8.28593 25.8884 6.80469 24.6746C6.4138 24.3454 6.02292 23.9957 5.87891 23.4814C7.54531 21.8355 9.21171 20.1897 10.8781 18.5233C11.2279 18.153 11.6187 17.8033 11.8039 17.3095Z" fill="#333333"/>
<path d="M23.3658 17.2684C23.5304 17.721 23.3247 18.0707 22.9749 18.3382C21.4114 19.5725 20.1153 21.0949 18.6958 22.4733C17.8111 23.3168 17.6054 23.358 16.7619 22.535C15.363 21.1772 14.0052 19.7783 12.6062 18.3999C12.2565 18.0501 12.0096 17.6593 12.0507 17.1449C13.676 15.5403 15.3218 13.9356 16.9265 12.3103C17.4614 11.7548 17.914 11.7137 18.4901 12.2897C20.1153 13.9561 21.7406 15.602 23.3658 17.2684Z" fill="#191919"/>
</svg>
