<svg width="64" height="48" viewBox="0 0 64 48" fill="none" xmlns="http://www.w3.org/2000/svg">
<path d="M41.0382 39V35.5901C43.807 33.6082 46.1239 31.8596 47.9892 30.344C49.8836 28.8285 51.3991 27.4296 52.5358 26.1472C53.6724 24.8649 54.4885 23.6554 54.9839 22.5187C55.5085 21.3529 55.7708 20.1726 55.7708 18.9776C55.7708 17.433 55.2899 16.1798 54.3282 15.218C53.3664 14.2562 52.0257 13.7753 50.3062 13.7753C48.4992 13.7753 47.0566 14.3874 45.9782 15.6114C44.929 16.8064 44.3316 18.453 44.1858 20.5515L40.1202 18.6716C40.3242 16.8355 40.8633 15.2471 41.7377 13.9065C42.612 12.5658 43.7924 11.5312 45.2788 10.8026C46.7943 10.074 48.543 9.70966 50.5248 9.70966C52.1569 9.70966 53.585 9.94282 54.809 10.4091C56.0623 10.8754 57.1115 11.5312 57.9567 12.3764C58.8019 13.1924 59.443 14.1542 59.8802 15.2617C60.3465 16.3692 60.5797 17.5496 60.5797 18.8028C60.5797 20.6389 60.1279 22.4167 59.2245 24.1362C58.321 25.8266 56.8929 27.5607 54.9402 29.3386C52.9875 31.1164 50.4228 33.0254 47.246 35.0655V35.1529C47.5958 35.0946 48.0766 35.0655 48.6887 35.0655C49.3007 35.0363 49.9127 35.0218 50.5248 35.0218C51.1368 34.9926 51.6323 34.978 52.0112 34.978H61.1043V39H41.0382Z" fill="#2A2A2A"/>
<path d="M0.0177612 12.1877C1.84529 10.6086 3.49538 8.83427 5.19871 7.1132C5.67777 6.63414 5.94391 6.59865 6.42297 7.1132C8.05532 8.81652 9.72316 10.4844 11.391 12.1522C11.5329 12.4716 11.2845 12.649 11.1249 12.8264C9.54573 14.441 7.94887 16.0379 6.33426 17.617C6.17457 17.7767 5.9794 17.9364 5.731 17.9542C5.37614 17.9364 5.14548 17.688 4.91482 17.4573C3.4599 16.0202 2.04046 14.5652 0.585536 13.1458C0.337135 12.9329 0.195191 12.649 0.0177612 12.3651C0.0177612 12.3119 0.0177612 12.2587 0.0177612 12.1877Z" fill="#D39950" style="mix-blend-mode:luminosity"/>
<path d="M5.71325 29.7355C5.66002 29.7355 5.6068 29.7355 5.55357 29.7355C3.99219 28.0321 2.32435 26.4353 0.691994 24.8029C0.425849 24.5368 0.212934 24.2352 0.0177612 23.898C0.0177612 23.8448 0.0177612 23.7738 0.0177612 23.7206C0.212934 23.348 0.461335 23.0464 0.762966 22.7447C2.09369 21.414 3.42441 20.0833 4.77288 18.7526C5.03902 18.4864 5.26968 18.1671 5.69551 18.1138C6.15683 18.1671 6.40523 18.5219 6.68912 18.8058C8.32147 20.4204 9.93608 22.0705 11.5862 23.6674C11.6217 23.7561 11.6217 23.8271 11.6039 23.9158C9.61671 25.832 7.71821 27.837 5.71325 29.7355Z" fill="#9CB966" style="mix-blend-mode:luminosity"/>
<path d="M5.7132 29.7354C5.69546 29.4693 5.85515 29.3096 6.03258 29.1322C7.70042 27.4821 9.35051 25.832 11.0184 24.1642C11.1603 24.0222 11.32 23.8803 11.5506 23.8803C12.0297 23.7561 12.2249 24.1464 12.4733 24.3948C13.8572 25.761 15.2234 27.145 16.6074 28.5112C17.3348 29.2386 17.3348 29.2386 18.0801 28.4757C19.4285 27.1272 20.777 25.761 22.1432 24.4126C22.4093 24.1464 22.6577 23.8448 23.0481 23.7206C23.1368 23.7028 23.2255 23.7028 23.2965 23.7206C23.4029 23.7561 23.5271 23.7916 23.6159 23.8625C25.3902 25.5126 27.0757 27.2514 28.7791 28.9902C28.8855 29.0967 28.9387 29.2386 28.921 29.3983C28.921 29.5048 28.921 29.6112 28.921 29.7177C28.8855 30.0371 28.6371 30.2323 28.4419 30.4274C26.9515 31.9356 25.4434 33.4437 23.9352 34.9341C23.1545 35.7148 22.8884 35.6793 22.1432 34.8809C20.7415 33.4082 19.2688 32.0065 17.8494 30.5339C17.4236 30.0903 17.1219 30.2145 16.7493 30.5871C15.3654 31.9888 13.9637 33.3905 12.562 34.7744C12.3136 35.0229 12.1007 35.3245 11.7281 35.4132C11.6216 35.4132 11.4974 35.4132 11.391 35.4132C9.58117 33.4615 7.64719 31.5985 5.7132 29.7354Z" fill="#375F44" style="mix-blend-mode:luminosity"/>
<path d="M23.2611 23.8803C23.1901 23.8803 23.1369 23.898 23.0659 23.898C22.6755 23.7916 22.4271 23.4722 22.161 23.206C20.7416 21.7866 19.3044 20.3849 17.9204 18.9477C17.4768 18.4864 17.193 18.4332 16.7139 18.93C15.3299 20.3849 13.8928 21.7866 12.4733 23.1883C12.2072 23.4367 12.012 23.827 11.533 23.7383C11.1426 23.7028 10.9474 23.3657 10.699 23.1351C9.01345 21.5205 7.43433 19.7639 5.67778 18.2203C5.67778 18.1138 5.67778 17.9896 5.66003 17.8832C7.64725 16.0734 9.56349 14.1571 11.3733 12.1699C11.4797 12.1699 11.6039 12.1877 11.7104 12.1877C12.1007 12.2586 12.2959 12.5603 12.5443 12.8087C13.8928 14.1394 15.2235 15.4701 16.5542 16.8186C17.2994 17.5638 17.2994 17.5638 18.0624 16.8008C19.3221 15.5588 20.5464 14.2813 21.8239 13.0571C22.8885 12.028 23.1546 11.9925 24.2369 13.0216C25.887 14.583 27.5194 16.1621 28.9743 17.9009C28.9565 18.0074 28.9388 18.1316 28.9033 18.238C28.8856 18.5042 28.7081 18.6638 28.5307 18.8235C26.9871 20.3672 25.4434 21.9108 23.8998 23.4722C23.7401 23.6496 23.5272 23.8093 23.2611 23.8803Z" fill="#C97E4C" style="mix-blend-mode:luminosity"/>
<path d="M28.992 17.8832C28.6194 17.8832 28.4065 17.6348 28.1936 17.3864C26.7919 15.7185 25.2127 14.2281 23.6159 12.7555C23.1013 12.2764 22.8352 12.4183 22.4626 12.7732C20.9367 14.2814 19.3753 15.7718 17.8849 17.3154C17.4058 17.8122 17.1574 17.759 16.7139 17.2977C15.0815 15.5766 13.3959 13.891 11.7281 12.1877C13.4669 10.4311 15.2412 8.69233 16.9623 6.90029C17.3704 6.47445 17.5478 6.75834 17.7962 7.00674C19.3576 8.56812 20.9544 10.1118 22.4803 11.7086C22.9416 12.1877 23.2078 12.2054 23.6691 11.7264C25.1595 10.1827 26.7386 8.69232 28.229 7.14869C28.6726 6.68737 28.9388 6.6164 29.4178 7.1132C30.9792 8.7633 32.5938 10.3602 34.1907 11.9748C34.4391 12.2232 34.6165 12.4183 34.2617 12.7555C32.4874 14.4588 30.8727 16.3041 28.992 17.8832Z" fill="#D39950" style="mix-blend-mode:luminosity"/>
<path d="M11.7103 35.4665C13.3604 33.5325 15.2767 31.8646 17.0155 30.0371C17.2994 29.7355 17.459 29.9307 17.6542 30.1258C19.2511 31.7404 20.8834 33.3196 22.4448 34.9697C22.9061 35.4665 23.1368 35.4487 23.5626 35.0229C25.0885 33.4615 26.6499 31.9356 28.1935 30.392C28.4242 30.1613 28.6726 29.9662 28.921 29.7532C30.6598 31.4743 32.3986 33.2131 34.1374 34.9164C34.51 35.2713 34.4746 35.502 34.1197 35.8568C32.4519 37.4892 30.784 39.1215 29.1517 40.7894C28.7258 41.2152 28.5307 40.9845 28.2468 40.6829C26.7741 39.1925 25.266 37.7376 23.8288 36.2117C23.2255 35.5729 22.8529 35.502 22.2142 36.1762C20.7592 37.7198 19.1979 39.1748 17.7074 40.6829C17.3348 41.0732 17.1397 41.0732 16.7493 40.6652C15.117 38.8909 13.4137 37.1875 11.7103 35.4665Z" fill="#629F6F" style="mix-blend-mode:luminosity"/>
<path d="M23.261 23.8803C25.0708 21.9108 26.9871 20.0478 28.9211 18.2203C30.6599 19.9413 32.3809 21.6624 34.1197 23.3657C34.4036 23.6496 34.5456 23.898 34.1907 24.2529C32.4164 25.974 30.6599 27.7128 28.9033 29.4338C27.0226 27.5886 25.1418 25.7255 23.261 23.8803Z" fill="#E0BE53" style="mix-blend-mode:luminosity"/>
<path d="M0.0177002 12.1877C1.84523 10.6086 3.49532 8.83427 5.19865 7.1132C5.67771 6.63414 5.94385 6.59865 6.42291 7.1132C8.05526 8.81652 9.7231 10.4844 11.3909 12.1522C11.5329 12.4716 11.2845 12.649 11.1248 12.8264C9.54567 14.441 7.94881 16.0379 6.3342 17.617C6.17451 17.7767 5.97934 17.9364 5.73094 17.9542C5.37608 17.9364 5.14542 17.688 4.91476 17.4573C3.45984 16.0202 2.0404 14.5652 0.585475 13.1458C0.337074 12.9329 0.19513 12.649 0.0177002 12.3651C0.0177002 12.3119 0.0177002 12.2587 0.0177002 12.1877Z" fill="black" fill-opacity="0.36" style="mix-blend-mode:overlay"/>
<path d="M11.5329 23.7384C13.2717 22.0173 15.046 20.314 16.7671 18.5752C17.2106 18.1316 17.4413 18.1493 17.8671 18.5929C19.5705 20.3849 21.327 22.1238 23.0658 23.8981C21.327 25.6191 19.5705 27.3047 17.8494 29.0613C17.4058 29.5048 17.1752 29.4871 16.7493 29.0435C15.0283 27.3047 13.2717 25.6014 11.5329 23.8981C11.5329 23.8448 11.5329 23.7916 11.5329 23.7384Z" fill="#1C2E20" style="mix-blend-mode:luminosity"/>
<path d="M11.3732 35.4487C9.59894 37.223 7.82465 38.9973 6.06809 40.7893C5.67775 41.1797 5.51806 40.8426 5.30515 40.6296C3.77925 39.1038 2.25336 37.5779 0.727462 36.0697C0.496803 35.839 0.248402 35.6439 0 35.4132C0 35.36 0 35.289 0 35.2358C0.17743 34.9342 0.354859 34.6325 0.621004 34.3841C2.25336 32.8227 3.74377 31.1194 5.46483 29.6468C5.55355 29.6113 5.62452 29.6113 5.71323 29.6113C6.05035 29.6822 6.26327 29.9306 6.49392 30.1436C7.96659 31.6162 9.43926 33.0889 10.9119 34.5616C11.1603 34.8277 11.5329 35.0229 11.3732 35.4487Z" fill="#629F6F" style="mix-blend-mode:luminosity"/>
<path d="M11.3732 35.4487C9.59894 37.223 7.82465 38.9973 6.06809 40.7893C5.67775 41.1797 5.51806 40.8426 5.30515 40.6296C3.77925 39.1038 2.25336 37.5779 0.727462 36.0697C0.496803 35.839 0.248402 35.6439 0 35.4132C0 35.36 0 35.289 0 35.2358C0.17743 34.9342 0.354859 34.6325 0.621004 34.3841C2.25336 32.8227 3.74377 31.1194 5.46483 29.6468C5.55355 29.6113 5.62452 29.6113 5.71323 29.6113C6.05035 29.6822 6.26327 29.9306 6.49392 30.1436C7.96659 31.6162 9.43926 33.0889 10.9119 34.5616C11.1603 34.8277 11.5329 35.0229 11.3732 35.4487Z" fill="black" fill-opacity="0.36" style="mix-blend-mode:overlay"/>
<path d="M11.3732 35.4487C9.59894 37.223 7.82465 38.9973 6.06809 40.7893C5.67775 41.1797 5.51806 40.8426 5.30515 40.6296C3.77925 39.1038 2.25336 37.5779 0.727462 36.0697C0.496803 35.839 0.248402 35.6439 0 35.4132C0 35.36 0 35.289 0 35.2358C0.17743 34.9342 0.354859 34.6325 0.621004 34.3841C2.25336 32.8227 3.74377 31.1194 5.46483 29.6468C5.55355 29.6113 5.62452 29.6113 5.71323 29.6113C6.05035 29.6822 6.26327 29.9306 6.49392 30.1436C7.96659 31.6162 9.43926 33.0889 10.9119 34.5616C11.1603 34.8277 11.5329 35.0229 11.3732 35.4487Z" fill="black" fill-opacity="0.36" style="mix-blend-mode:overlay"/>
<path d="M23.2611 23.8803C23.1901 23.8803 23.1369 23.898 23.0659 23.898C22.6755 23.7916 22.4271 23.4722 22.161 23.206C20.7416 21.7866 19.3044 20.3849 17.9204 18.9477C17.4768 18.4864 17.193 18.4332 16.7139 18.93C15.3299 20.3849 13.8928 21.7866 12.4733 23.1883C12.2072 23.4367 12.012 23.827 11.533 23.7383C11.1426 23.7028 10.9474 23.3657 10.699 23.1351C9.01345 21.5205 7.43433 19.7639 5.67778 18.2203C5.67778 18.1138 5.67778 17.9896 5.66003 17.8832C7.64725 16.0734 9.56349 14.1571 11.3733 12.1699C11.4797 12.1699 11.6039 12.1877 11.7104 12.1877C12.1007 12.2586 12.2959 12.5603 12.5443 12.8087C13.8928 14.1394 15.2235 15.4701 16.5542 16.8186C17.2994 17.5638 17.2994 17.5638 18.0624 16.8008C19.3221 15.5588 20.5464 14.2813 21.8239 13.0571C22.8885 12.028 23.1546 11.9925 24.2369 13.0216C25.887 14.583 27.5194 16.1621 28.9743 17.9009C28.9565 18.0074 28.9388 18.1316 28.9033 18.238C28.8856 18.5042 28.7081 18.6638 28.5307 18.8235C26.9871 20.3672 25.4434 21.9108 23.8998 23.4722C23.7401 23.6496 23.5272 23.8093 23.2611 23.8803Z" fill="black" fill-opacity="0.36" style="mix-blend-mode:overlay"/>
<path d="M5.7132 29.7354C5.69546 29.4693 5.85515 29.3096 6.03258 29.1322C7.70042 27.4821 9.35051 25.832 11.0184 24.1642C11.1603 24.0222 11.32 23.8803 11.5506 23.8803C12.0297 23.7561 12.2249 24.1464 12.4733 24.3948C13.8572 25.761 15.2234 27.145 16.6074 28.5112C17.3348 29.2386 17.3348 29.2386 18.0801 28.4757C19.4285 27.1272 20.777 25.761 22.1432 24.4126C22.4093 24.1464 22.6577 23.8448 23.0481 23.7206C23.1368 23.7028 23.2255 23.7028 23.2965 23.7206C23.4029 23.7561 23.5271 23.7916 23.6159 23.8625C25.3902 25.5126 27.0757 27.2514 28.7791 28.9902C28.8855 29.0967 28.9387 29.2386 28.921 29.3983C28.921 29.5048 28.921 29.6112 28.921 29.7177C28.8855 30.0371 28.6371 30.2323 28.4419 30.4274C26.9515 31.9356 25.4434 33.4437 23.9352 34.9341C23.1545 35.7148 22.8884 35.6793 22.1432 34.8809C20.7415 33.4082 19.2688 32.0065 17.8494 30.5339C17.4236 30.0903 17.1219 30.2145 16.7493 30.5871C15.3654 31.9888 13.9637 33.3905 12.562 34.7744C12.3136 35.0229 12.1007 35.3245 11.7281 35.4132C11.6216 35.4132 11.4974 35.4132 11.391 35.4132C9.58117 33.4615 7.64719 31.5985 5.7132 29.7354Z" fill="black" fill-opacity="0.36" style="mix-blend-mode:overlay"/>
<path d="M34.582 35.4487C32.8077 37.223 31.0334 38.9973 29.2769 40.7893C28.8865 41.1797 28.7269 40.8426 28.5139 40.6296C26.9881 39.1038 25.4622 37.5779 23.9363 36.0697C23.7056 35.839 23.4572 35.6439 23.2088 35.4132C23.2088 35.36 23.2088 35.289 23.2088 35.2358C23.3862 34.9342 23.5637 34.6325 23.8298 34.3841C25.4622 32.8227 26.9526 31.1194 28.6736 29.6468C28.7623 29.6113 28.8333 29.6113 28.922 29.6113C29.2592 29.6822 29.4721 29.9306 29.7027 30.1436C31.1754 31.6162 32.6481 33.0889 34.1207 34.5616C34.3691 34.8277 34.7417 35.0229 34.582 35.4487Z" fill="black" fill-opacity="0.36" style="mix-blend-mode:overlay"/>
<path d="M34.582 35.4487C32.8077 37.223 31.0334 38.9973 29.2769 40.7893C28.8865 41.1797 28.7269 40.8426 28.5139 40.6296C26.9881 39.1038 25.4622 37.5779 23.9363 36.0697C23.7056 35.839 23.4572 35.6439 23.2088 35.4132C23.2088 35.36 23.2088 35.289 23.2088 35.2358C23.3862 34.9342 23.5637 34.6325 23.8298 34.3841C25.4622 32.8227 26.9526 31.1194 28.6736 29.6468C28.7623 29.6113 28.8333 29.6113 28.922 29.6113C29.2592 29.6822 29.4721 29.9306 29.7027 30.1436C31.1754 31.6162 32.6481 33.0889 34.1207 34.5616C34.3691 34.8277 34.7417 35.0229 34.582 35.4487Z" fill="black" fill-opacity="0.36" style="mix-blend-mode:overlay"/>
<path d="M11.5329 23.7384C13.2717 22.0173 15.046 20.314 16.7671 18.5752C17.2106 18.1316 17.4413 18.1493 17.8671 18.5929C19.5705 20.3849 21.327 22.1238 23.0658 23.8981C21.327 25.6191 19.5705 27.3047 17.8494 29.0613C17.4058 29.5048 17.1752 29.4871 16.7493 29.0435C15.0283 27.3047 13.2717 25.6014 11.5329 23.8981C11.5329 23.8448 11.5329 23.7916 11.5329 23.7384Z" fill="black" fill-opacity="0.36" style="mix-blend-mode:overlay"/>
<path d="M34.582 12.5188C32.8077 14.2931 31.0334 16.0674 29.2769 17.8594C28.8865 18.2497 28.7269 17.9126 28.5139 17.6997C26.9881 16.1738 25.4622 14.6479 23.9363 13.1398C23.7056 12.9091 23.4572 12.7139 23.2088 12.4833C23.2088 12.4301 23.2088 12.3591 23.2088 12.3059C23.3862 12.0042 23.5637 11.7026 23.8298 11.4542C25.4622 9.89281 26.9526 8.18949 28.6736 6.71682C28.7623 6.68133 28.8333 6.68134 28.922 6.68134C29.2592 6.75231 29.4721 7.00071 29.7027 7.21362C31.1754 8.68629 32.6481 10.159 34.1207 11.6316C34.3691 11.8978 34.7417 12.0929 34.582 12.5188Z" fill="black" fill-opacity="0.36" style="mix-blend-mode:overlay"/>
<path d="M34.582 12.5188C32.8077 14.2931 31.0334 16.0674 29.2769 17.8594C28.8865 18.2497 28.7269 17.9126 28.5139 17.6997C26.9881 16.1738 25.4622 14.6479 23.9363 13.1398C23.7056 12.9091 23.4572 12.7139 23.2088 12.4833C23.2088 12.4301 23.2088 12.3591 23.2088 12.3059C23.3862 12.0042 23.5637 11.7026 23.8298 11.4542C25.4622 9.89281 26.9526 8.18949 28.6736 6.71682C28.7623 6.68133 28.8333 6.68134 28.922 6.68134C29.2592 6.75231 29.4721 7.00071 29.7027 7.21362C31.1754 8.68629 32.6481 10.159 34.1207 11.6316C34.3691 11.8978 34.7417 12.0929 34.582 12.5188Z" fill="black" fill-opacity="0.36" style="mix-blend-mode:overlay"/>
</svg>
