<svg width="37" height="37" viewBox="0 0 37 37" fill="none" xmlns="http://www.w3.org/2000/svg">
<rect width="37" height="37" rx="11" fill="#A6BBA8"/>
<path d="M19 27H28" stroke="#ECF0F3" stroke-width="2" stroke-linecap="round" stroke-linejoin="round"/>
<path d="M23.5 10.5C23.8978 10.1022 24.4374 9.87868 25 9.87868C25.2786 9.87868 25.5544 9.93355 25.8118 10.0402C26.0692 10.1468 26.303 10.303 26.5 10.5C26.697 10.697 26.8532 10.9308 26.9598 11.1882C27.0665 11.4456 27.1213 11.7214 27.1213 12C27.1213 12.2786 27.0665 12.5544 26.9598 12.8118C26.8532 13.0692 26.697 13.303 26.5 13.5L14 26L10 27L11 23L23.5 10.5Z" stroke="#ECF0F3" stroke-width="2" stroke-linecap="round" stroke-linejoin="round"/>
</svg>
