<svg width="182" height="176" viewBox="0 0 182 176" fill="none" xmlns="http://www.w3.org/2000/svg">
<path d="M7.38968 133.88V160.808C7.38968 162.157 7.62435 163.111 8.09368 163.668C8.56302 164.225 9.29635 164.504 10.2937 164.504C10.9097 164.504 11.3937 164.46 11.7457 164.372C12.127 164.284 12.567 164.137 13.0657 163.932L12.7577 165.868C12.3764 166.044 11.9364 166.176 11.4377 166.264C10.9684 166.381 10.4404 166.44 9.85368 166.44C8.29902 166.44 7.12568 166 6.33368 165.12C5.57102 164.211 5.18968 162.803 5.18968 160.896V133.88H7.38968ZM23.8199 139.732C23.2626 139.732 22.8079 139.571 22.4559 139.248C22.1332 138.896 21.9719 138.441 21.9719 137.884C21.9719 137.327 22.1332 136.887 22.4559 136.564C22.8079 136.212 23.2626 136.036 23.8199 136.036C24.3772 136.036 24.8172 136.212 25.1399 136.564C25.4919 136.887 25.6679 137.327 25.6679 137.884C25.6679 138.441 25.4919 138.896 25.1399 139.248C24.8172 139.571 24.3772 139.732 23.8199 139.732ZM24.9199 144V166H22.7199V144H24.9199ZM45.4906 166.44C43.2613 166.44 41.2813 165.985 39.5506 165.076C37.8493 164.167 36.6466 162.861 35.9426 161.16L37.8346 159.884C38.3626 161.351 39.3013 162.495 40.6506 163.316C42.0293 164.108 43.7013 164.504 45.6666 164.504C47.6026 164.504 49.1133 164.123 50.1986 163.36C51.3133 162.597 51.8706 161.585 51.8706 160.324C51.8706 159.473 51.5919 158.74 51.0346 158.124C50.5066 157.479 49.4946 156.995 47.9986 156.672L42.8506 155.572C40.7679 155.132 39.2719 154.428 38.3626 153.46C37.4533 152.463 36.9986 151.26 36.9986 149.852C36.9986 148.679 37.3506 147.623 38.0546 146.684C38.7586 145.745 39.7266 144.997 40.9586 144.44C42.2199 143.853 43.6866 143.56 45.3586 143.56C47.5586 143.56 49.3773 144 50.8146 144.88C52.2519 145.731 53.2639 147.021 53.8506 148.752L52.0026 149.94C51.5626 148.385 50.7413 147.256 49.5386 146.552C48.3653 145.848 46.9719 145.496 45.3586 145.496C44.1266 145.496 43.0413 145.687 42.1026 146.068C41.1933 146.42 40.4746 146.919 39.9466 147.564C39.4479 148.18 39.1986 148.899 39.1986 149.72C39.1986 150.571 39.4919 151.348 40.0786 152.052C40.6653 152.727 41.7066 153.225 43.2026 153.548L48.4826 154.692C50.5653 155.132 52.0173 155.807 52.8386 156.716C53.6599 157.596 54.0706 158.696 54.0706 160.016C54.0706 161.307 53.7186 162.451 53.0146 163.448C52.3106 164.416 51.3133 165.164 50.0226 165.692C48.7319 166.191 47.2213 166.44 45.4906 166.44ZM69.2014 137.884V160.192C69.2014 161.571 69.5241 162.627 70.1694 163.36C70.8441 164.064 71.8121 164.416 73.0734 164.416C73.8948 164.416 74.6134 164.284 75.2294 164.02C75.8748 163.727 76.4468 163.316 76.9454 162.788L77.7814 164.592C77.2241 165.149 76.5201 165.604 75.6694 165.956C74.8188 166.279 73.8654 166.44 72.8094 166.44C71.6654 166.44 70.6534 166.235 69.7734 165.824C68.8934 165.384 68.2041 164.724 67.7054 163.844C67.2361 162.964 67.0014 161.849 67.0014 160.5V138.5L69.2014 137.884ZM77.4294 144V145.892H62.6014V144H77.4294ZM88.5154 139.732C87.958 139.732 87.5034 139.571 87.1514 139.248C86.8287 138.896 86.6674 138.441 86.6674 137.884C86.6674 137.327 86.8287 136.887 87.1514 136.564C87.5034 136.212 87.958 136.036 88.5154 136.036C89.0727 136.036 89.5127 136.212 89.8354 136.564C90.1874 136.887 90.3634 137.327 90.3634 137.884C90.3634 138.441 90.1874 138.896 89.8354 139.248C89.5127 139.571 89.0727 139.732 88.5154 139.732ZM89.6154 144V166H87.4154V144H89.6154ZM102.75 166V144H104.73L104.906 149.5L104.554 149.192C104.965 147.989 105.581 146.963 106.402 146.112C107.223 145.261 108.206 144.631 109.35 144.22C110.494 143.78 111.726 143.56 113.046 143.56C114.689 143.56 116.141 143.868 117.402 144.484C118.663 145.1 119.646 146.009 120.35 147.212C121.083 148.415 121.45 149.925 121.45 151.744V166H119.25V152.448C119.25 150.043 118.649 148.283 117.446 147.168C116.273 146.053 114.733 145.496 112.826 145.496C111.447 145.496 110.157 145.819 108.954 146.464C107.781 147.08 106.813 147.989 106.05 149.192C105.317 150.395 104.95 151.861 104.95 153.592V166H102.75ZM152.543 139.952L153.071 141.888C153.042 141.888 153.012 141.888 152.983 141.888C152.954 141.888 152.91 141.888 152.851 141.888C151.414 141.888 150.299 142.269 149.507 143.032C148.744 143.765 148.363 144.807 148.363 146.156L146.955 145.452C146.955 144.337 147.19 143.369 147.659 142.548C148.128 141.727 148.774 141.096 149.595 140.656C150.416 140.187 151.34 139.952 152.367 139.952C152.426 139.952 152.455 139.952 152.455 139.952C152.484 139.952 152.514 139.952 152.543 139.952ZM145.591 163.756C147.762 163.756 149.463 164.211 150.695 165.12C151.927 166.029 152.543 167.247 152.543 168.772C152.543 170.121 152.088 171.295 151.179 172.292C150.299 173.289 149.082 174.067 147.527 174.624C145.972 175.181 144.198 175.46 142.203 175.46C138.888 175.46 136.351 174.888 134.591 173.744C132.831 172.629 131.951 171.221 131.951 169.52C131.951 168.288 132.391 167.217 133.271 166.308C134.18 165.399 135.5 164.856 137.231 164.68L137.055 165.076C136.116 164.812 135.28 164.372 134.547 163.756C133.843 163.14 133.491 162.26 133.491 161.116C133.491 159.884 133.946 158.887 134.855 158.124C135.794 157.332 137.026 156.877 138.551 156.76L140.883 157.552H139.959C138.61 157.64 137.524 157.977 136.703 158.564C135.911 159.121 135.515 159.855 135.515 160.764C135.515 161.761 135.896 162.509 136.659 163.008C137.451 163.507 138.448 163.756 139.651 163.756H145.591ZM142.203 173.612C143.934 173.612 145.415 173.407 146.647 172.996C147.879 172.585 148.818 172.028 149.463 171.324C150.138 170.649 150.475 169.887 150.475 169.036C150.475 168.009 150.02 167.188 149.111 166.572C148.231 165.956 146.882 165.648 145.063 165.648H138.815C137.436 165.648 136.292 165.971 135.383 166.616C134.474 167.261 134.019 168.127 134.019 169.212C134.019 170.532 134.738 171.588 136.175 172.38C137.642 173.201 139.651 173.612 142.203 173.612ZM141.895 143.56C143.626 143.56 145.151 143.868 146.471 144.484C147.82 145.071 148.862 145.907 149.595 146.992C150.328 148.048 150.695 149.295 150.695 150.732C150.695 152.14 150.328 153.401 149.595 154.516C148.862 155.601 147.82 156.452 146.471 157.068C145.151 157.655 143.626 157.948 141.895 157.948C139.108 157.948 136.923 157.288 135.339 155.968C133.784 154.619 133.007 152.873 133.007 150.732C133.007 149.295 133.374 148.048 134.107 146.992C134.87 145.907 135.911 145.071 137.231 144.484C138.58 143.868 140.135 143.56 141.895 143.56ZM141.895 145.364C139.959 145.364 138.375 145.863 137.143 146.86C135.911 147.828 135.295 149.119 135.295 150.732C135.295 152.345 135.911 153.651 137.143 154.648C138.375 155.645 139.959 156.144 141.895 156.144C143.831 156.144 145.4 155.645 146.603 154.648C147.835 153.651 148.451 152.345 148.451 150.732C148.451 149.119 147.835 147.828 146.603 146.86C145.4 145.863 143.831 145.364 141.895 145.364ZM169.687 166.44C167.458 166.44 165.478 165.985 163.747 165.076C162.046 164.167 160.843 162.861 160.139 161.16L162.031 159.884C162.559 161.351 163.498 162.495 164.847 163.316C166.226 164.108 167.898 164.504 169.863 164.504C171.799 164.504 173.31 164.123 174.395 163.36C175.51 162.597 176.067 161.585 176.067 160.324C176.067 159.473 175.789 158.74 175.231 158.124C174.703 157.479 173.691 156.995 172.195 156.672L167.047 155.572C164.965 155.132 163.469 154.428 162.559 153.46C161.65 152.463 161.195 151.26 161.195 149.852C161.195 148.679 161.547 147.623 162.251 146.684C162.955 145.745 163.923 144.997 165.155 144.44C166.417 143.853 167.883 143.56 169.555 143.56C171.755 143.56 173.574 144 175.011 144.88C176.449 145.731 177.461 147.021 178.047 148.752L176.199 149.94C175.759 148.385 174.938 147.256 173.735 146.552C172.562 145.848 171.169 145.496 169.555 145.496C168.323 145.496 167.238 145.687 166.299 146.068C165.39 146.42 164.671 146.919 164.143 147.564C163.645 148.18 163.395 148.899 163.395 149.72C163.395 150.571 163.689 151.348 164.275 152.052C164.862 152.727 165.903 153.225 167.399 153.548L172.679 154.692C174.762 155.132 176.214 155.807 177.035 156.716C177.857 157.596 178.267 158.696 178.267 160.016C178.267 161.307 177.915 162.451 177.211 163.448C176.507 164.416 175.51 165.164 174.219 165.692C172.929 166.191 171.418 166.44 169.687 166.44Z" fill="#B65131"/>
<path d="M116.702 111V101.303C124.576 95.6672 131.165 90.6944 136.469 86.3846C141.856 82.0749 146.166 78.0966 149.399 74.4499C152.631 70.8032 154.952 67.3637 156.36 64.1314C157.852 60.8162 158.598 57.4595 158.598 54.0614C158.598 49.6688 157.231 46.105 154.496 43.3699C151.761 40.6349 147.948 39.2674 143.058 39.2674C137.92 39.2674 133.817 41.0078 130.751 44.4888C127.767 47.8869 126.068 52.5696 125.653 58.537L114.092 53.1912C114.672 47.9698 116.205 43.4528 118.692 39.6403C121.178 35.8278 124.535 32.8856 128.761 30.8136C133.071 28.7416 138.044 27.7056 143.68 27.7056C148.321 27.7056 152.382 28.3686 155.863 29.6947C159.427 31.0208 162.411 32.8856 164.814 35.2891C167.218 37.6098 169.041 40.3448 170.284 43.4942C171.61 46.6437 172.273 50.0003 172.273 53.5642C172.273 58.7856 170.989 63.8413 168.42 68.7312C165.85 73.5382 161.789 78.4696 156.236 83.5253C150.683 88.581 143.39 94.0096 134.356 99.8112V100.06C135.35 99.8941 136.718 99.8112 138.458 99.8112C140.199 99.7283 141.939 99.6869 143.68 99.6869C145.42 99.604 146.829 99.5626 147.907 99.5626H173.765V111H116.702Z" fill="#B65131"/>
<path d="M0.0504456 34.6587C5.24747 30.1681 9.93993 25.1224 14.7838 20.2281C16.1461 18.8658 16.9029 18.7649 18.2653 20.2281C22.9073 25.072 27.6502 29.8149 32.3931 34.5578C32.7968 35.466 32.0904 35.9706 31.6363 36.4751C27.1456 41.0667 22.6045 45.6078 18.013 50.0984C17.5589 50.5525 17.0038 51.0066 16.2975 51.0571C15.2883 51.0066 14.6324 50.3002 13.9765 49.6443C9.83902 45.5573 5.80249 41.4199 1.66506 37.3834C0.958664 36.7779 0.555011 35.9706 0.0504456 35.1633C0.0504456 35.0119 0.0504456 34.8605 0.0504456 34.6587Z" fill="#D39950"/>
<path d="M16.247 84.5602C16.0956 84.5602 15.9443 84.5602 15.7929 84.5602C11.3527 79.7164 6.6098 75.1753 1.96779 70.5333C1.21095 69.7765 0.605468 68.9187 0.0504456 67.96C0.0504456 67.8087 0.0504456 67.6068 0.0504456 67.4555C0.605468 66.3959 1.31186 65.5381 2.16962 64.6803C5.95386 60.8961 9.7381 57.1119 13.5728 53.3276C14.3296 52.5708 14.9856 51.6626 16.1965 51.5112C17.5084 51.6626 18.2148 52.6717 19.0221 53.479C23.6641 58.0705 28.2557 62.763 32.9481 67.3041C33.049 67.5564 33.049 67.7582 32.9986 68.0105C27.3474 73.4598 21.9486 79.1614 16.247 84.5602Z" fill="#9CB966"/>
<path d="M16.247 84.5602C16.1966 83.8034 16.6507 83.3493 17.1552 82.8447C21.8981 78.1523 26.5906 73.4598 31.3335 68.7169C31.7372 68.3132 32.1913 67.9096 32.8472 67.9096C34.2095 67.5564 34.7646 68.6664 35.471 69.3728C39.4066 73.258 43.2917 77.1936 47.2273 81.0787C49.2961 83.1474 49.2961 83.1475 51.4152 80.9778C55.2499 77.1431 59.0846 73.258 62.9698 69.4233C63.7266 68.6664 64.433 67.8087 65.5431 67.4555C65.7953 67.405 66.0476 67.405 66.2495 67.4555C66.5522 67.5564 66.9054 67.6573 67.1577 67.8591C72.2033 72.5516 76.9967 77.4963 81.8405 82.4411C82.1433 82.7438 82.2946 83.1474 82.2442 83.6016C82.2442 83.9043 82.2442 84.207 82.2442 84.5098C82.1433 85.418 81.4369 85.973 80.8819 86.528C76.6435 90.8168 72.3547 95.1056 68.0659 99.344C65.8458 101.564 65.089 101.463 62.9698 99.1926C58.9837 95.0047 54.7958 91.0187 50.7593 86.8308C49.5483 85.5694 48.6906 85.9226 47.631 86.9821C43.6954 90.9682 39.7093 94.9543 35.7232 98.8899C35.0168 99.5963 34.4114 100.454 33.3518 100.706C33.049 100.706 32.6958 100.706 32.3931 100.706C27.2465 95.1561 21.7468 89.8582 16.247 84.5602Z" fill="#375F44"/>
<path d="M66.1485 67.9096C65.9467 67.9096 65.7953 67.96 65.5935 67.96C64.4835 67.6573 63.7771 66.7491 63.0202 65.9922C58.9837 61.9557 54.8967 57.9696 50.9611 53.8826C49.6997 52.5708 48.8924 52.4194 47.5301 53.8322C43.5945 57.9696 39.5075 61.9557 35.471 65.9417C34.7141 66.6481 34.1591 67.7582 32.7968 67.5059C31.6867 67.405 31.1317 66.4463 30.4253 65.7904C25.6319 61.1988 21.1413 56.2036 16.1461 51.8139C16.1461 51.5112 16.1461 51.158 16.0956 50.8552C21.7468 45.7087 27.1961 40.2594 32.3427 34.6082C32.6454 34.6082 32.9986 34.6587 33.3013 34.6587C34.4114 34.8605 34.9664 35.7183 35.6728 36.4247C39.5075 40.2089 43.2917 43.9931 47.076 47.8278C49.1951 49.947 49.1951 49.947 51.3648 47.7774C54.9472 44.2454 58.4287 40.6126 62.0616 37.1311C65.089 34.2046 65.8458 34.1037 68.9237 37.0301C73.6161 41.4703 78.2581 45.961 82.3956 50.9057C82.3451 51.2084 82.2946 51.5616 82.1937 51.8644C82.1433 52.6212 81.6387 53.0753 81.1341 53.5294C76.7444 57.9192 72.3547 62.3089 67.965 66.7491C67.5109 67.2536 66.9054 67.7077 66.1485 67.9096Z" fill="#C97E4C"/>
<path d="M82.446 50.8552C81.3864 50.8552 80.7809 50.1489 80.1755 49.4425C76.1894 44.6995 71.6988 40.4612 67.1577 36.2733C65.6944 34.911 64.9376 35.3146 63.878 36.3238C59.5387 40.6126 55.0985 44.8509 50.8602 49.2406C49.4979 50.6534 48.7915 50.5021 47.5301 49.1902C42.8881 44.2959 38.0947 39.5025 33.3518 34.6587C38.2965 29.6635 43.3422 24.7188 48.2365 19.6226C49.397 18.4117 49.9015 19.219 50.6079 19.9254C55.0481 24.3656 59.5892 28.7553 63.9284 33.2964C65.2403 34.6587 65.9972 34.7091 67.309 33.3468C71.5474 28.9571 76.038 24.7188 80.2764 20.329C81.5378 19.0172 82.2946 18.8153 83.657 20.2281C88.0971 24.9206 92.6887 29.4617 97.2298 34.0532C97.9362 34.7596 98.4407 35.3146 97.4316 36.2733C92.3859 41.1171 87.7944 46.3646 82.446 50.8552Z" fill="#D39950"/>
<path d="M33.3013 100.858C37.9938 95.3579 43.4431 90.615 48.3878 85.418C49.1951 84.5602 49.6493 85.1152 50.2043 85.6703C54.7454 90.2618 59.3874 94.7524 63.8275 99.4449C65.1394 100.858 65.7953 100.807 67.0063 99.5963C71.3456 95.1561 75.7858 90.8168 80.1755 86.4271C80.8314 85.7712 81.5378 85.2162 82.2442 84.6107C87.1889 89.505 92.1337 94.4497 97.0784 99.2935C98.138 100.303 98.0371 100.959 97.028 101.968C92.285 106.61 87.5421 111.252 82.9001 115.995C81.6892 117.206 81.1341 116.55 80.3268 115.692C76.1389 111.454 71.8501 107.316 67.7632 102.977C66.0476 101.16 64.988 100.959 63.1716 102.876C59.0342 107.266 54.594 111.403 50.3556 115.692C49.2961 116.802 48.741 116.802 47.631 115.641C42.989 110.596 38.1452 105.752 33.3013 100.858Z" fill="#629F6F"/>
<path d="M66.1486 67.9096C71.2951 62.3089 76.7444 57.0109 82.2442 51.8139C87.1889 56.7082 92.0832 61.6025 97.028 66.4463C97.8353 67.2536 98.2389 67.96 97.2298 68.9691C92.1841 73.8634 87.1889 78.8082 82.1937 83.7025C76.8454 78.455 71.497 73.157 66.1486 67.9096Z" fill="#E0BE53"/>
<path d="M0.0504456 34.6587C5.24747 30.1681 9.93993 25.1224 14.7838 20.2281C16.1461 18.8658 16.9029 18.7649 18.2653 20.2281C22.9073 25.072 27.6502 29.8149 32.3931 34.5578C32.7968 35.466 32.0904 35.9706 31.6363 36.4751C27.1456 41.0667 22.6045 45.6078 18.013 50.0984C17.5589 50.5525 17.0038 51.0066 16.2975 51.0571C15.2883 51.0066 14.6324 50.3002 13.9765 49.6443C9.83902 45.5573 5.80249 41.4199 1.66506 37.3834C0.958664 36.7779 0.555011 35.9706 0.0504456 35.1633C0.0504456 35.0119 0.0504456 34.8605 0.0504456 34.6587Z" fill="black" fill-opacity="0.36" style="mix-blend-mode:overlay"/>
<path d="M32.7968 67.5059C37.7415 62.6116 42.7872 57.7678 47.6814 52.8231C48.9429 51.5616 49.5988 51.6121 50.8097 52.8735C55.6536 57.9696 60.6488 62.9144 65.5935 67.96C60.6488 72.8543 55.6536 77.6477 50.7593 82.6429C49.4979 83.9043 48.8419 83.8538 47.631 82.5924C42.7367 77.6477 37.7415 72.8038 32.7968 67.96C32.7968 67.8086 32.7968 67.6573 32.7968 67.5059Z" fill="#1C2E20"/>
<path d="M32.3427 100.807C27.297 105.853 22.2513 110.899 17.2561 115.995C16.1461 117.105 15.692 116.146 15.0865 115.541C10.7472 111.201 6.40798 106.862 2.06872 102.573C1.41278 101.917 0.706392 101.362 0 100.706C0 100.555 0 100.353 0 100.202C0.504566 99.344 1.00913 98.4862 1.76598 97.7798C6.40798 93.3397 10.6463 88.4958 15.5406 84.3079C15.7929 84.207 15.9947 84.207 16.247 84.207C17.2057 84.4089 17.8112 85.1152 18.4671 85.7207C22.655 89.9086 26.8429 94.0965 31.0308 98.2844C31.7372 99.0413 32.7968 99.5963 32.3427 100.807Z" fill="#629F6F"/>
<path d="M32.3427 100.807C27.297 105.853 22.2513 110.899 17.2561 115.995C16.1461 117.105 15.692 116.146 15.0865 115.541C10.7472 111.201 6.40798 106.862 2.06872 102.573C1.41278 101.917 0.706392 101.362 0 100.706C0 100.555 0 100.353 0 100.202C0.504566 99.344 1.00913 98.4862 1.76598 97.7798C6.40798 93.3397 10.6463 88.4958 15.5406 84.3079C15.7929 84.207 15.9947 84.207 16.247 84.207C17.2057 84.4089 17.8112 85.1152 18.4671 85.7207C22.655 89.9086 26.8429 94.0965 31.0308 98.2844C31.7372 99.0413 32.7968 99.5963 32.3427 100.807Z" fill="black" fill-opacity="0.36" style="mix-blend-mode:overlay"/>
<path d="M32.3427 100.807C27.297 105.853 22.2513 110.899 17.2561 115.995C16.1461 117.105 15.692 116.146 15.0865 115.541C10.7472 111.201 6.40798 106.862 2.06872 102.573C1.41278 101.917 0.706392 101.362 0 100.706C0 100.555 0 100.353 0 100.202C0.504566 99.344 1.00913 98.4862 1.76598 97.7798C6.40798 93.3397 10.6463 88.4958 15.5406 84.3079C15.7929 84.207 15.9947 84.207 16.247 84.207C17.2057 84.4089 17.8112 85.1152 18.4671 85.7207C22.655 89.9086 26.8429 94.0965 31.0308 98.2844C31.7372 99.0413 32.7968 99.5963 32.3427 100.807Z" fill="black" fill-opacity="0.36" style="mix-blend-mode:overlay"/>
<path d="M66.1485 67.9096C65.9467 67.9096 65.7953 67.96 65.5935 67.96C64.4835 67.6573 63.7771 66.7491 63.0202 65.9922C58.9837 61.9557 54.8967 57.9696 50.9611 53.8826C49.6997 52.5708 48.8924 52.4194 47.5301 53.8322C43.5945 57.9696 39.5075 61.9557 35.471 65.9418C34.7141 66.6482 34.1591 67.7582 32.7968 67.5059C31.6867 67.405 31.1317 66.4463 30.4253 65.7904C25.6319 61.1988 21.1413 56.2037 16.1461 51.8139C16.1461 51.5112 16.1461 51.158 16.0956 50.8553C21.7468 45.7087 27.1961 40.2594 32.3427 34.6082C32.6454 34.6082 32.9986 34.6587 33.3013 34.6587C34.4114 34.8605 34.9664 35.7183 35.6728 36.4247C39.5075 40.2089 43.2917 43.9932 47.076 47.8279C49.1951 49.947 49.1951 49.947 51.3648 47.7774C54.9472 44.2454 58.4287 40.6126 62.0616 37.1311C65.089 34.2046 65.8458 34.1037 68.9237 37.0302C73.6161 41.4703 78.2581 45.961 82.3956 50.9057C82.3451 51.2085 82.2946 51.5616 82.1937 51.8644C82.1433 52.6212 81.6387 53.0753 81.1341 53.5295C76.7444 57.9192 72.3547 62.3089 67.965 66.7491C67.5109 67.2536 66.9054 67.7077 66.1485 67.9096Z" fill="black" fill-opacity="0.36" style="mix-blend-mode:overlay"/>
<path d="M16.247 84.5602C16.1966 83.8034 16.6507 83.3493 17.1552 82.8447C21.8981 78.1523 26.5906 73.4598 31.3335 68.7169C31.7372 68.3132 32.1913 67.9096 32.8472 67.9096C34.2095 67.5564 34.7646 68.6664 35.471 69.3728C39.4066 73.258 43.2917 77.1936 47.2273 81.0787C49.2961 83.1474 49.2961 83.1475 51.4152 80.9778C55.2499 77.1431 59.0846 73.258 62.9698 69.4233C63.7266 68.6664 64.433 67.8087 65.5431 67.4555C65.7953 67.405 66.0476 67.405 66.2495 67.4555C66.5522 67.5564 66.9054 67.6573 67.1577 67.8591C72.2033 72.5516 76.9967 77.4963 81.8405 82.4411C82.1433 82.7438 82.2946 83.1474 82.2442 83.6016C82.2442 83.9043 82.2442 84.207 82.2442 84.5098C82.1433 85.418 81.4369 85.973 80.8819 86.528C76.6435 90.8168 72.3547 95.1056 68.0659 99.344C65.8458 101.564 65.089 101.463 62.9698 99.1926C58.9837 95.0047 54.7958 91.0187 50.7593 86.8308C49.5483 85.5694 48.6906 85.9226 47.631 86.9821C43.6954 90.9682 39.7093 94.9543 35.7232 98.8899C35.0168 99.5963 34.4114 100.454 33.3518 100.706C33.049 100.706 32.6958 100.706 32.3931 100.706C27.2465 95.1561 21.7468 89.8582 16.247 84.5602Z" fill="black" fill-opacity="0.36" style="mix-blend-mode:overlay"/>
<path d="M98.3427 100.807C93.297 105.853 88.2513 110.899 83.2561 115.995C82.1461 117.105 81.692 116.146 81.0865 115.541C76.7472 111.201 72.408 106.862 68.0687 102.573C67.4128 101.917 66.7064 101.362 66 100.706C66 100.555 66 100.353 66 100.202C66.5046 99.344 67.0091 98.4862 67.766 97.7798C72.408 93.3397 76.6463 88.4958 81.5406 84.3079C81.7929 84.207 81.9947 84.207 82.247 84.207C83.2057 84.4089 83.8112 85.1152 84.4671 85.7207C88.655 89.9086 92.8429 94.0965 97.0308 98.2844C97.7372 99.0413 98.7968 99.5963 98.3427 100.807Z" fill="black" fill-opacity="0.36" style="mix-blend-mode:overlay"/>
<path d="M98.3427 100.807C93.297 105.853 88.2513 110.899 83.2561 115.995C82.1461 117.105 81.692 116.146 81.0865 115.541C76.7472 111.201 72.408 106.862 68.0687 102.573C67.4128 101.917 66.7064 101.362 66 100.706C66 100.555 66 100.353 66 100.202C66.5046 99.344 67.0091 98.4862 67.766 97.7798C72.408 93.3397 76.6463 88.4958 81.5406 84.3079C81.7929 84.207 81.9947 84.207 82.247 84.207C83.2057 84.4089 83.8112 85.1152 84.4671 85.7207C88.655 89.9086 92.8429 94.0965 97.0308 98.2844C97.7372 99.0413 98.7968 99.5963 98.3427 100.807Z" fill="black" fill-opacity="0.36" style="mix-blend-mode:overlay"/>
<path d="M32.7968 67.5059C37.7415 62.6116 42.7872 57.7678 47.6814 52.8231C48.9429 51.5616 49.5988 51.6121 50.8097 52.8735C55.6536 57.9696 60.6488 62.9144 65.5935 67.96C60.6488 72.8543 55.6536 77.6477 50.7593 82.6429C49.4979 83.9043 48.8419 83.8538 47.631 82.5924C42.7367 77.6477 37.7415 72.8038 32.7968 67.96C32.7968 67.8086 32.7968 67.6573 32.7968 67.5059Z" fill="black" fill-opacity="0.36" style="mix-blend-mode:overlay"/>
<path d="M98.3427 35.6002C93.297 40.6459 88.2513 45.6915 83.2561 50.7876C82.1461 51.8977 81.692 50.939 81.0865 50.3335C76.7472 45.9943 72.408 41.655 68.0687 37.3662C67.4128 36.7103 66.7064 36.1552 66 35.4993C66 35.3479 66 35.1461 66 34.9947C66.5046 34.137 67.0091 33.2792 67.766 32.5728C72.408 28.1326 76.6463 23.2888 81.5406 19.1009C81.7929 19 81.9947 19 82.247 19C83.2057 19.2018 83.8112 19.9082 84.4671 20.5137C88.655 24.7016 92.8429 28.8895 97.0308 33.0774C97.7372 33.8342 98.7968 34.3893 98.3427 35.6002Z" fill="black" fill-opacity="0.36" style="mix-blend-mode:overlay"/>
<path d="M98.3427 35.6002C93.297 40.6459 88.2513 45.6915 83.2561 50.7876C82.1461 51.8977 81.692 50.939 81.0865 50.3335C76.7472 45.9943 72.408 41.655 68.0687 37.3662C67.4128 36.7103 66.7064 36.1552 66 35.4993C66 35.3479 66 35.1461 66 34.9947C66.5046 34.137 67.0091 33.2792 67.766 32.5728C72.408 28.1326 76.6463 23.2888 81.5406 19.1009C81.7929 19 81.9947 19 82.247 19C83.2057 19.2018 83.8112 19.9082 84.4671 20.5137C88.655 24.7016 92.8429 28.8895 97.0308 33.0774C97.7372 33.8342 98.7968 34.3893 98.3427 35.6002Z" fill="black" fill-opacity="0.36" style="mix-blend-mode:overlay"/>
</svg>
